<svg width="258" height="145" viewBox="0 0 258 145" fill="none" xmlns="http://www.w3.org/2000/svg">
<path d="M80.2821 61.2625H84.6358V82.2149H80.2821V61.2625Z" fill="#4D4D4D"/>
<path d="M87.0739 75.0374C87.074 73.53 87.5219 72.0565 88.361 70.8037C89.2002 69.5509 90.3927 68.5752 91.7874 68.0003C93.1821 67.4255 94.7163 67.2773 96.1954 67.5745C97.6745 67.8718 99.032 68.6012 100.096 69.6701C101.16 70.7391 101.882 72.0996 102.171 73.5791C102.46 75.0587 102.303 76.5906 101.719 77.9809C101.136 79.3711 100.153 80.557 98.894 81.3882C97.6354 82.2194 96.1581 82.6585 94.6494 82.6499C93.6487 82.6577 92.6565 82.4658 91.731 82.0855C90.8056 81.7052 89.9654 81.144 89.2598 80.435C88.5542 79.726 87.9975 78.8833 87.6221 77.9565C87.2467 77.0296 87.0604 76.0372 87.0739 75.0374V75.0374ZM97.9872 75.0374C97.9701 74.3875 97.7616 73.7571 97.3877 73.225C97.0139 72.6929 96.4914 72.2827 95.8854 72.0458C95.2795 71.8089 94.6172 71.7557 93.9811 71.8929C93.3451 72.0301 92.7637 72.3517 92.3097 72.8173C91.8556 73.2829 91.549 73.872 91.4282 74.5108C91.3074 75.1496 91.3779 75.8098 91.6307 76.4089C91.8834 77.0079 92.3074 77.5192 92.8495 77.8787C93.3916 78.2383 94.0277 78.4302 94.6784 78.4304C95.1214 78.4391 95.5614 78.3563 95.971 78.1873C96.3805 78.0183 96.7507 77.7667 97.0586 77.4483C97.3664 77.1299 97.6051 76.7514 97.7599 76.3366C97.9147 75.9218 97.9822 75.4795 97.9582 75.0374H97.9872Z" fill="#4D4D4D"/>
<path d="M119.451 67.8601V81.5046C119.451 86.3186 115.678 88.3631 111.861 88.3631C110.515 88.4735 109.164 88.2063 107.962 87.5914C106.759 86.9766 105.753 86.0387 105.055 84.8831L108.726 82.7661C109.024 83.3655 109.497 83.86 110.083 84.1838C110.669 84.5076 111.34 84.6453 112.006 84.5786C112.431 84.6309 112.861 84.5888 113.268 84.4553C113.674 84.3218 114.046 84.1003 114.356 83.8066C114.667 83.5129 114.909 83.1543 115.064 82.7563C115.22 82.3583 115.286 81.9309 115.257 81.5046V80.1851C114.75 80.7989 114.107 81.2862 113.379 81.6083C112.651 81.9305 111.858 82.0787 111.063 82.0411C109.138 82.0411 107.293 81.2773 105.932 79.9176C104.571 78.558 103.807 76.7139 103.807 74.7911C103.807 72.8683 104.571 71.0242 105.932 69.6646C107.293 68.305 109.138 67.5411 111.063 67.5411C111.858 67.5035 112.651 67.6517 113.379 67.9739C114.107 68.2961 114.75 68.7834 115.257 69.3971V67.9471L119.451 67.8601ZM115.257 74.7476C115.286 74.0539 115.106 73.3674 114.742 72.7763C114.377 72.1853 113.844 71.7168 113.21 71.431C112.577 71.1453 111.873 71.0553 111.188 71.1728C110.503 71.2902 109.869 71.6097 109.367 72.0901C108.865 72.5705 108.519 73.1899 108.372 73.8686C108.226 74.5473 108.286 75.2543 108.545 75.8987C108.803 76.5431 109.249 77.0954 109.825 77.4845C110.4 77.8737 111.079 78.082 111.774 78.0826C112.227 78.1153 112.683 78.0525 113.11 77.8984C113.538 77.7443 113.928 77.5023 114.257 77.188C114.585 76.8737 114.844 76.4942 115.016 76.0738C115.188 75.6534 115.27 75.2017 115.257 74.7476V74.7476Z" fill="#4D4D4D"/>
<path d="M121.903 75.0375C121.903 73.5313 122.351 72.0589 123.189 70.8068C124.026 69.5546 125.217 68.5789 126.61 68.0031C128.003 67.4274 129.536 67.2775 131.014 67.5724C132.492 67.8673 133.85 68.5938 134.915 69.6598C135.98 70.7259 136.704 72.0837 136.997 73.5613C137.289 75.039 137.136 76.57 136.557 77.9608C135.978 79.3515 135 80.5394 133.745 81.3742C132.49 82.2089 131.015 82.6529 129.508 82.65C128.505 82.6598 127.511 82.4694 126.583 82.0901C125.655 81.7108 124.812 81.1502 124.104 80.4411C123.396 79.7321 122.836 78.8889 122.458 77.9611C122.08 77.0332 121.892 76.0392 121.903 75.0375ZM132.817 75.0375C132.8 74.387 132.591 73.7561 132.216 73.2237C131.842 72.6913 131.318 72.2811 130.712 72.0446C130.105 71.8081 129.442 71.7558 128.805 71.8942C128.169 72.0326 127.588 72.3556 127.134 72.8226C126.681 73.2897 126.375 73.8801 126.256 74.5198C126.137 75.1596 126.209 75.8202 126.464 76.419C126.719 77.0178 127.146 77.5281 127.69 77.8859C128.234 78.2437 128.871 78.4332 129.522 78.4305C129.965 78.4392 130.405 78.3564 130.815 78.1874C131.225 78.0184 131.595 77.7668 131.903 77.4484C132.21 77.13 132.449 76.7515 132.604 76.3367C132.759 75.9219 132.826 75.4796 132.802 75.0375H132.817Z" fill="#4D4D4D"/>
<path d="M139.13 64.0175C139.13 63.5071 139.281 63.008 139.565 62.5836C139.849 62.1592 140.252 61.8283 140.724 61.633C141.196 61.4376 141.716 61.3865 142.217 61.4861C142.718 61.5857 143.178 61.8315 143.539 62.1925C143.901 62.5534 144.147 63.0133 144.246 63.514C144.346 64.0147 144.295 64.5336 144.099 65.0052C143.904 65.4768 143.573 65.8799 143.148 66.1635C142.723 66.4472 142.224 66.5985 141.713 66.5985C141.03 66.591 140.377 66.3166 139.895 65.8342C139.412 65.3518 139.137 64.6997 139.13 64.0175V64.0175ZM139.55 67.86H143.904V82.215H139.55V67.86Z" fill="#4D4D4D"/>
<path d="M162.538 75.0375C162.587 75.9922 162.446 76.9471 162.124 77.8473C161.802 78.7474 161.305 79.5751 160.662 80.2826C160.018 80.9901 159.241 81.5635 158.375 81.9698C157.509 82.3761 156.571 82.6073 155.616 82.65C154.805 82.7039 153.992 82.5741 153.238 82.2703C152.484 81.9665 151.809 81.4966 151.262 80.8955V87.986H146.908V67.86H151.262V69.2085C151.809 68.6092 152.485 68.1414 153.239 67.8401C153.993 67.5388 154.806 67.4117 155.616 67.4685C156.568 67.5113 157.502 67.7411 158.365 68.1447C159.228 68.5482 160.003 69.1177 160.646 69.8205C161.289 70.5234 161.786 71.3459 162.111 72.241C162.436 73.1361 162.581 74.0864 162.538 75.0375V75.0375ZM158.184 75.0375C158.167 74.3641 157.951 73.7106 157.564 73.1592C157.177 72.6077 156.635 72.1827 156.007 71.9374C155.379 71.6921 154.693 71.6375 154.034 71.7804C153.375 71.9233 152.773 72.2573 152.303 72.7406C151.834 73.2239 151.517 73.835 151.394 74.4972C151.27 75.1595 151.345 75.8434 151.609 76.4634C151.872 77.0834 152.313 77.6118 152.877 77.9823C153.44 78.3529 154.1 78.5491 154.774 78.5465C155.236 78.5661 155.696 78.4879 156.126 78.3171C156.555 78.1463 156.944 77.8867 157.266 77.5554C157.588 77.2241 157.836 76.8285 157.994 76.3945C158.153 75.9606 158.217 75.4982 158.184 75.0375V75.0375Z" fill="#4D4D4D"/>
<path d="M175.788 77.9087C175.788 81.2147 172.885 82.6212 169.809 82.6212C168.554 82.7341 167.294 82.4683 166.192 81.8583C165.09 81.2482 164.196 80.322 163.626 79.1992L167.371 77.0822C167.519 77.5996 167.841 78.0504 168.282 78.3592C168.723 78.668 169.257 78.8161 169.794 78.7787C170.825 78.7787 171.347 78.4597 171.347 77.8797C171.347 76.2992 164.279 77.1402 164.279 72.1667C164.279 69.0347 166.921 67.4687 169.91 67.4687C171.047 67.4179 172.176 67.6755 173.177 68.2141C174.179 68.7528 175.016 69.5525 175.599 70.5282L171.855 72.5002C171.689 72.1261 171.419 71.8079 171.077 71.5841C170.734 71.3602 170.334 71.2402 169.925 71.2387C169.17 71.2387 168.72 71.5287 168.72 72.0362C168.72 73.6892 175.788 72.6017 175.788 77.9087Z" fill="#4D4D4D"/>
<path d="M191.563 67.8599V82.2149H187.209V80.8664C186.714 81.4633 186.086 81.9357 185.375 82.2455C184.665 82.5553 183.891 82.6938 183.116 82.6499C180.214 82.6499 177.732 80.5764 177.732 76.7049V67.8599H182.086V76.0524C182.052 76.3949 182.092 76.7407 182.205 77.066C182.318 77.3913 182.5 77.6883 182.738 77.9365C182.977 78.1846 183.267 78.3781 183.588 78.5034C183.909 78.6287 184.253 78.683 184.597 78.6624C186.164 78.6624 187.267 77.7344 187.267 75.7624V67.8599H191.563Z" fill="#4D4D4D"/>
<path d="M216.234 73.3991V82.2151H211.88V73.7761C211.88 72.3261 211.198 71.4271 209.819 71.4271C208.44 71.4271 207.57 72.4276 207.57 74.1241V82.2151H203.216V73.7761C203.216 72.3261 202.534 71.4271 201.155 71.4271C199.777 71.4271 198.906 72.4276 198.906 74.1241V82.2151H194.552V67.8601H198.906V69.1796C199.357 68.5967 199.945 68.135 200.619 67.8363C201.293 67.5376 202.031 67.4112 202.766 67.4686C203.502 67.4302 204.236 67.5838 204.895 67.9143C205.554 68.2448 206.116 68.7408 206.525 69.3536C207.003 68.7133 207.636 68.2046 208.364 67.875C209.093 67.5454 209.893 67.4055 210.69 67.4686C214.086 67.4686 216.234 69.8176 216.234 73.3991Z" fill="#4D4D4D"/>
<path d="M54.3487 57.4926V51.3301H34.9022V93.6701H54.3487V87.5076C50.3651 87.5076 46.5446 85.9264 43.7277 83.112C40.9109 80.2975 39.3284 76.4803 39.3284 72.5001C39.3284 68.5198 40.9109 64.7026 43.7277 61.8882C46.5446 59.0737 50.3651 57.4926 54.3487 57.4926V57.4926Z" fill="#3187ED"/>
<path d="M54.3486 57.4924V87.5074C58.3323 87.5074 62.1527 85.9263 64.9696 83.1118C67.7864 80.2974 69.3689 76.4802 69.3689 72.4999C69.3689 68.5197 67.7864 64.7025 64.9696 61.888C62.1527 59.0736 58.3323 57.4924 54.3486 57.4924V57.4924Z" fill="#3187ED"/>
<path d="M219.891 67.7728C221.654 67.7728 223.083 66.3446 223.083 64.5828C223.083 62.821 221.654 61.3928 219.891 61.3928C218.127 61.3928 216.698 62.821 216.698 64.5828C216.698 66.3446 218.127 67.7728 219.891 67.7728Z" fill="#4D4D4D"/>
</svg>
