<svg width="48" height="48" viewBox="0 0 48 48" fill="none" xmlns="http://www.w3.org/2000/svg">
<path d="M3 1.5C3 2.32843 2.32843 3 1.5 3C0.671573 3 0 2.32843 0 1.5C0 0.671573 0.671573 0 1.5 0C2.32843 0 3 0.671573 3 1.5Z" fill="white" fill-opacity="0.8"/>
<path d="M18 1.5C18 2.32843 17.3284 3 16.5 3C15.6716 3 15 2.32843 15 1.5C15 0.671573 15.6716 0 16.5 0C17.3284 0 18 0.671573 18 1.5Z" fill="white" fill-opacity="0.8"/>
<path d="M33 1.5C33 2.32843 32.3284 3 31.5 3C30.6716 3 30 2.32843 30 1.5C30 0.671573 30.6716 0 31.5 0C32.3284 0 33 0.671573 33 1.5Z" fill="white" fill-opacity="0.8"/>
<path d="M48 1.5C48 2.32843 47.3284 3 46.5 3C45.6716 3 45 2.32843 45 1.5C45 0.671573 45.6716 0 46.5 0C47.3284 0 48 0.671573 48 1.5Z" fill="white" fill-opacity="0.8"/>
<path d="M3 16.5C3 17.3284 2.32843 18 1.5 18C0.671573 18 0 17.3284 0 16.5C0 15.6716 0.671573 15 1.5 15C2.32843 15 3 15.6716 3 16.5Z" fill="white" fill-opacity="0.8"/>
<path d="M18 16.5C18 17.3284 17.3284 18 16.5 18C15.6716 18 15 17.3284 15 16.5C15 15.6716 15.6716 15 16.5 15C17.3284 15 18 15.6716 18 16.5Z" fill="white" fill-opacity="0.8"/>
<path d="M33 16.5C33 17.3284 32.3284 18 31.5 18C30.6716 18 30 17.3284 30 16.5C30 15.6716 30.6716 15 31.5 15C32.3284 15 33 15.6716 33 16.5Z" fill="white" fill-opacity="0.8"/>
<path d="M48 16.5C48 17.3284 47.3284 18 46.5 18C45.6716 18 45 17.3284 45 16.5C45 15.6716 45.6716 15 46.5 15C47.3284 15 48 15.6716 48 16.5Z" fill="white" fill-opacity="0.8"/>
<path d="M3 31.5C3 32.3284 2.32843 33 1.5 33C0.671573 33 0 32.3284 0 31.5C0 30.6716 0.671573 30 1.5 30C2.32843 30 3 30.6716 3 31.5Z" fill="white" fill-opacity="0.8"/>
<path d="M18 31.5C18 32.3284 17.3284 33 16.5 33C15.6716 33 15 32.3284 15 31.5C15 30.6716 15.6716 30 16.5 30C17.3284 30 18 30.6716 18 31.5Z" fill="white" fill-opacity="0.8"/>
<path d="M33 31.5C33 32.3284 32.3284 33 31.5 33C30.6716 33 30 32.3284 30 31.5C30 30.6716 30.6716 30 31.5 30C32.3284 30 33 30.6716 33 31.5Z" fill="white" fill-opacity="0.8"/>
<path d="M48 31.5C48 32.3284 47.3284 33 46.5 33C45.6716 33 45 32.3284 45 31.5C45 30.6716 45.6716 30 46.5 30C47.3284 30 48 30.6716 48 31.5Z" fill="white" fill-opacity="0.8"/>
<path d="M3 46.5C3 47.3284 2.32843 48 1.5 48C0.671573 48 0 47.3284 0 46.5C0 45.6716 0.671573 45 1.5 45C2.32843 45 3 45.6716 3 46.5Z" fill="white" fill-opacity="0.8"/>
<path d="M18 46.5C18 47.3284 17.3284 48 16.5 48C15.6716 48 15 47.3284 15 46.5C15 45.6716 15.6716 45 16.5 45C17.3284 45 18 45.6716 18 46.5Z" fill="white" fill-opacity="0.8"/>
<path d="M33 46.5C33 47.3284 32.3284 48 31.5 48C30.6716 48 30 47.3284 30 46.5C30 45.6716 30.6716 45 31.5 45C32.3284 45 33 45.6716 33 46.5Z" fill="white" fill-opacity="0.8"/>
<path d="M48 46.5C48 47.3284 47.3284 48 46.5 48C45.6716 48 45 47.3284 45 46.5C45 45.6716 45.6716 45 46.5 45C47.3284 45 48 45.6716 48 46.5Z" fill="white" fill-opacity="0.8"/>
</svg>
