<svg width="18" height="18" viewBox="0 0 18 18" fill="none" xmlns="http://www.w3.org/2000/svg">
<path d="M8.80196 4.48778C6.30479 4.48778 4.29055 6.50246 4.29055 9.0002C4.29055 11.4979 6.30479 13.5126 8.80196 13.5126C11.2991 13.5126 13.3134 11.4979 13.3134 9.0002C13.3134 6.50246 11.2991 4.48778 8.80196 4.48778ZM8.80196 11.9339C7.18822 11.9339 5.86896 10.6182 5.86896 9.0002C5.86896 7.38217 7.18429 6.06653 8.80196 6.06653C10.4196 6.06653 11.735 7.38217 11.735 9.0002C11.735 10.6182 10.4157 11.9339 8.80196 11.9339ZM14.5502 4.3032C14.5502 4.88836 14.079 5.3557 13.4979 5.3557C12.9129 5.3557 12.4456 4.88443 12.4456 4.3032C12.4456 3.72196 12.9168 3.25069 13.4979 3.25069C14.079 3.25069 14.5502 3.72196 14.5502 4.3032ZM17.5382 5.37141C17.4714 3.96153 17.1494 2.71266 16.1168 1.68372C15.0881 0.654775 13.8395 0.33274 12.4299 0.26205C10.9772 0.179577 6.62282 0.179577 5.17006 0.26205C3.76442 0.328813 2.51583 0.650848 1.48319 1.67979C0.450552 2.70873 0.132515 3.9576 0.0618405 5.36748C-0.0206135 6.82057 -0.0206135 11.1759 0.0618405 12.629C0.128589 14.0389 0.450552 15.2877 1.48319 16.3167C2.51583 17.3456 3.76049 17.6677 5.17006 17.7383C6.62282 17.8208 10.9772 17.8208 12.4299 17.7383C13.8395 17.6716 15.0881 17.3495 16.1168 16.3167C17.1455 15.2877 17.4675 14.0389 17.5382 12.629C17.6206 11.1759 17.6206 6.8245 17.5382 5.37141ZM15.6613 14.1881C15.3551 14.9578 14.7622 15.5509 13.9887 15.8611C12.8304 16.3206 10.082 16.2146 8.80196 16.2146C7.52196 16.2146 4.76957 16.3167 3.61521 15.8611C2.84564 15.5548 2.25276 14.9618 1.94258 14.1881C1.48319 13.0296 1.5892 10.2805 1.5892 9.0002C1.5892 7.71991 1.48712 4.9669 1.94258 3.81229C2.24883 3.04255 2.84172 2.44953 3.61521 2.13928C4.7735 1.67979 7.52196 1.78583 8.80196 1.78583C10.082 1.78583 12.8344 1.68372 13.9887 2.13928C14.7583 2.4456 15.3512 3.03862 15.6613 3.81229C16.1207 4.97083 16.0147 7.71991 16.0147 9.0002C16.0147 10.2805 16.1207 13.0335 15.6613 14.1881Z" fill="#DADADA"/>
</svg>
