<svg width="25" height="19" viewBox="0 0 25 19" fill="none" xmlns="http://www.w3.org/2000/svg">
<path d="M24.4776 3.01659C24.1901 1.90799 23.3429 1.0349 22.2673 0.738602C20.3177 0.200195 12.5 0.200195 12.5 0.200195C12.5 0.200195 4.68232 0.200195 2.73266 0.738602C1.65706 1.03495 0.80992 1.90799 0.522399 3.01659C0 5.02598 0 9.21838 0 9.21838C0 9.21838 0 13.4108 0.522399 15.4202C0.80992 16.5288 1.65706 17.3655 2.73266 17.6618C4.68232 18.2002 12.5 18.2002 12.5 18.2002C12.5 18.2002 20.3177 18.2002 22.2673 17.6618C23.3429 17.3655 24.1901 16.5288 24.4776 15.4202C25 13.4108 25 9.21838 25 9.21838C25 9.21838 25 5.02598 24.4776 3.01659ZM9.94316 13.0248V5.41199L16.4772 9.21848L9.94316 13.0248Z" fill="#DADADA"/>
</svg>
